<?xml version="1.0" standalone="no"?>
<!DOCTYPE svg PUBLIC "-//W3C//DTD SVG 20010904//EN"
 "http://www.w3.org/TR/2001/REC-SVG-20010904/DTD/svg10.dtd">
<svg version="1.0" xmlns="http://www.w3.org/2000/svg"
 width="512.000000pt" height="512.000000pt" viewBox="0 0 512.000000 512.000000"
 preserveAspectRatio="xMidYMid meet">

<g transform="translate(0.000000,512.000000) scale(0.100000,-0.100000)"
fill="#000000" stroke="none">
<path d="M2573 4699 c-106 -14 -204 -91 -288 -226 0 -1 -25 10 -55 25 -49 24
-66 27 -160 27 -94 0 -111 -3 -166 -28 -34 -16 -76 -43 -92 -60 -39 -40 -73
-116 -81 -181 l-6 -49 -63 -13 c-93 -19 -166 -56 -232 -120 -94 -89 -139 -214
-127 -347 6 -62 6 -63 -28 -85 -73 -51 -125 -171 -125 -290 0 -78 24 -139 71
-183 l32 -30 -26 -27 c-36 -37 -68 -113 -74 -176 -10 -96 32 -177 112 -216 43
-21 44 -23 30 -43 -48 -68 16 -202 121 -253 60 -29 115 -30 173 -1 l31 16 20
-39 c24 -47 79 -104 121 -126 46 -23 126 -29 176 -11 l41 14 7 -35 c3 -19 18
-45 32 -58 27 -25 108 -43 124 -27 6 6 7 82 3 199 l-7 190 -28 -4 c-15 -2 -53
4 -84 13 -162 52 -242 278 -158 453 48 100 143 134 258 92 33 -13 75 -25 93
-27 52 -8 116 22 166 78 70 78 106 198 106 357 l0 74 61 -55 c70 -64 176 -120
269 -141 75 -18 242 -20 345 -5 121 17 229 14 272 -8 80 -42 98 -123 109 -478
6 -192 -1 -339 -23 -495 -6 -41 -5 -44 10 -32 30 26 50 96 45 169 l-3 68 81 0
c75 0 86 3 125 30 58 41 97 98 111 166 10 47 9 63 -6 108 l-17 52 31 29 c55
51 75 112 75 225 0 113 -17 166 -74 222 l-32 33 26 44 c38 65 43 138 13 196
-13 25 -39 55 -58 68 -31 21 -44 23 -103 19 -60 -4 -67 -2 -61 12 24 56 35
123 31 193 -3 64 -10 90 -40 151 -77 156 -218 251 -384 259 -51 3 -53 4 -53
31 0 60 -64 143 -142 183 -43 22 -136 29 -182 14 -35 -11 -43 -10 -105 19 -76
35 -162 49 -238 40z"/>
<path d="M2447 2088 c35 -65 159 -192 238 -243 65 -43 207 -100 274 -111 l41
-7 0 85 0 84 -97 27 c-126 36 -286 104 -390 167 -45 28 -85 50 -88 50 -3 0 6
-23 22 -52z"/>
<path d="M2085 1708 c-2 -7 -18 -62 -34 -123 -28 -103 -29 -112 -14 -135 61
-93 257 -213 350 -214 44 -1 48 1 70 39 13 22 27 46 31 53 6 10 25 6 81 -18
80 -33 111 -37 111 -17 0 13 -89 232 -103 255 -5 8 -34 12 -80 12 -124 0 -224
37 -316 115 -52 45 -88 57 -96 33z"/>
<path d="M2995 1680 c-22 -23 -67 -54 -99 -71 l-60 -29 -43 -101 c-43 -101
-49 -124 -35 -132 4 -3 41 9 82 25 69 28 76 28 85 12 28 -49 52 -67 77 -61 38
10 119 88 150 144 l26 50 -59 101 c-33 56 -65 102 -72 102 -7 0 -31 -18 -52
-40z"/>
</g>
</svg>
